<?xml version="1.0" standalone="no"?>
<!DOCTYPE svg PUBLIC "-//W3C//DTD SVG 20010904//EN"
 "http://www.w3.org/TR/2001/REC-SVG-20010904/DTD/svg10.dtd">
<svg version="1.0" xmlns="http://www.w3.org/2000/svg"
 width="1200.000000pt" height="630.000000pt" viewBox="0 0 1200.000000 630.000000"
 preserveAspectRatio="xMidYMid meet">

<g transform="translate(0.000000,630.000000) scale(0.100000,-0.100000)"
fill="rgb(26, 35, 126)" stroke="none">
<path d="M5730 4815 c-146 -146 -268 -265 -272 -265 -5 0 -8 60 -8 134 0 130
-1 134 -26 159 -34 34 -75 42 -113 22 -57 -29 -61 -50 -61 -302 l0 -227 -214
-216 c-137 -137 -217 -225 -221 -243 -25 -101 71 -190 164 -151 24 10 198 176
529 507 l492 492 499 -499 c454 -454 502 -499 539 -506 91 -16 166 64 141 152
-6 25 -157 181 -596 621 l-588 587 -265 -265z"/>
<path d="M5517 4052 l-477 -477 0 -487 c0 -267 3 -493 6 -502 6 -14 63 -16
545 -16 l539 0 0 440 0 441 245 -2 245 -1 0 -439 0 -439 163 2 162 3 3 505 2
505 -312 313 c-172 172 -388 385 -479 472 l-165 159 -477 -477z m301 -815 l2
-207 -222 2 -223 3 -3 195 c-1 107 0 200 2 206 4 9 61 12 223 11 l218 -2 3
-208z"/>
<path d="M6647 2360 c-126 -22 -241 -110 -300 -229 -31 -63 -32 -70 -32 -191
0 -123 1 -127 34 -195 19 -39 55 -90 81 -115 179 -174 500 -148 635 52 19 29
35 58 35 65 0 9 -19 13 -62 13 -62 -1 -63 -1 -86 -38 -49 -79 -135 -117 -251
-110 -119 7 -202 62 -252 166 -32 66 -38 208 -13 289 24 78 106 162 183 188
66 21 179 17 231 -10 43 -21 97 -71 116 -107 12 -24 18 -26 71 -24 32 1 58 7
61 14 7 21 -68 121 -118 157 -86 63 -224 94 -333 75z"/>
<path d="M3670 1940 l0 -420 50 0 50 0 0 170 0 170 69 0 69 0 99 -170 98 -170
63 0 c34 0 62 2 62 4 0 3 -45 80 -100 171 -55 92 -98 170 -95 175 3 5 18 11
34 15 41 9 111 72 132 119 23 51 25 153 3 204 -48 115 -145 151 -406 152
l-128 0 0 -420z m368 306 c48 -25 72 -70 72 -137 0 -42 -6 -65 -23 -90 -37
-56 -76 -69 -204 -69 l-113 0 0 153 c0 85 3 157 8 161 14 15 225 1 260 -18z"/>
<path d="M7270 1941 l0 -421 55 0 55 0 0 170 0 170 68 0 67 -1 98 -169 99
-170 65 0 c35 0 62 3 60 8 -3 4 -50 82 -105 173 l-99 166 57 25 c96 42 148
136 137 246 -10 94 -70 166 -167 201 -20 7 -110 15 -212 18 l-178 6 0 -422z
m372 305 c43 -21 78 -82 78 -136 0 -57 -36 -116 -84 -139 -35 -17 -62 -21
-149 -21 l-107 0 0 161 0 161 113 -4 c81 -3 122 -9 149 -22z"/>
<path d="M8000 1941 l0 -421 200 0 200 0 0 45 0 45 -145 0 -145 0 -2 373 -3
372 -52 3 -53 3 0 -420z"/>
<path d="M5930 2260 l0 -80 -40 0 -40 0 0 -45 0 -45 39 0 39 0 4 -234 c3 -218
4 -236 24 -262 41 -56 67 -68 164 -72 l90 -4 0 45 0 45 -66 4 c-105 7 -104 5
-104 264 l0 214 85 0 85 0 0 45 0 45 -85 0 -85 0 0 80 0 80 -55 0 -55 0 0 -80z"/>
<path d="M4597 2180 c-153 -39 -238 -154 -238 -325 -1 -171 79 -288 225 -330
115 -34 246 -4 322 72 29 29 74 100 74 118 0 3 -27 5 -60 5 -33 0 -60 -4 -60
-9 0 -20 -56 -75 -95 -92 -121 -56 -275 24 -292 150 l-6 41 263 0 263 0 -5 83
c-7 130 -66 221 -173 268 -50 22 -165 32 -218 19z m183 -110 c56 -28 100 -92
100 -145 l0 -25 -206 0 -207 0 6 36 c12 71 75 136 151 155 42 10 113 1 156
-21z"/>
<path d="M5395 2181 c-45 -12 -95 -40 -121 -68 l-24 -26 0 47 0 46 -55 0 -55
0 0 -330 0 -330 55 0 55 0 0 206 c0 133 4 221 12 247 18 60 66 103 130 116 96
19 165 -11 206 -89 21 -42 22 -56 22 -262 l0 -218 56 0 56 0 -4 238 c-3 216
-5 241 -24 282 -25 54 -65 95 -117 121 -42 22 -145 33 -192 20z"/>
</g>
</svg>
